<?xml version="1.0" encoding="utf-8"?>
<!-- Generator: Adobe Illustrator 18.1.1, SVG Export Plug-In . SVG Version: 6.00 Build 0)  -->
<!DOCTYPE svg PUBLIC "-//W3C//DTD SVG 1.1//EN" "http://www.w3.org/Graphics/SVG/1.1/DTD/svg11.dtd">
<svg version="1.1" id="Layer_1" xmlns="http://www.w3.org/2000/svg" xmlns:xlink="http://www.w3.org/1999/xlink" x="0px" y="0px"
	 viewBox="-258 211.6 441.9 201" enable-background="new -258 211.6 441.9 201" xml:space="preserve">
<g>
	<path fill="#92589F" d="M16.9,235.5c-2.4-5.2-1.9-8.9,2-10.8c4.1-1.8,7.1,0.3,9.4,5.5c2.2,4.6,1.9,10.7-0.2,14.9
		C22.2,243.2,18.3,238.4,16.9,235.5z M13.3,257.3c-5.7,0.4-9.1-1.1-9.5-5.6c-0.3-4.4,2.7-6.6,8.4-7c5.1-0.4,10.7,1.9,13.8,5.3
		C22.2,254.8,16.5,256.9,13.3,257.3z M39.5,231.9c4.1-4.1,7.7-5,10.8-1.8c3.2,3.2,2.2,6.7-1.9,10.7c-3.6,3.6-9.4,5.5-14,4.9
		C34.1,239.5,37.3,234.2,39.5,231.9z M35.3,267.8c-0.4,5.7-2.6,8.7-7,8.4c-4.5-0.4-6-3.8-5.6-9.5c0.3-3.2,2.5-9,7.3-12.7
		C33.3,257,35.7,262.7,35.3,267.8z M49.7,251.7c5.2,2.4,7.4,5.3,5.5,9.4c-1.9,4-5.6,4.4-10.8,2c-2.9-1.4-7.7-5.4-9.5-11.2
		C38.9,249.8,45.1,249.6,49.7,251.7z"/>
	<path fill="#4E356B" d="M9.8,342.9H-8.3c0,0-11.5-42.3,25.9-79.7C17.6,263.2-1.4,301,9.8,342.9z"/>
	<path fill="#92589F" d="M-216.2,344.7c-26.2,0-41.8-16.9-41.8-50.4c0-37.6,22.8-50.8,43.4-50.8c21.9,0,40.9,13.5,40.9,50.8
		C-173.7,327.9-190.6,344.7-216.2,344.7z M-215.2,329.9c17.8,0,23.3-17.5,23.3-35.1c0-15-4.7-36.2-23.5-36.2
		c-17.6,0-24.1,17.5-24.1,35C-239.6,310.3-235.3,329.9-215.2,329.9z"/>
	<path fill="#92589F" d="M-103.1,269v61.6l1.2,12.3h-15l-1-8.7h-0.6c-5,7.4-12.9,10.7-21.3,10.7c-16.2,0-24.3-8.6-24.3-25.9V269
		h17.5v46.9c0,9,1.6,15.6,11.4,15.6c8,0,14.5-7.1,14.5-14.1V269H-103.1z"/>
	<path fill="#4E356B" d="M-48.3,285l30.4,57.9h-20.3l-22.2-43.5l-14.1,19V343h-17.8v-97.9h17.8v49.1l35-49.1h19.1L-48.3,285z"/>
	<g>
		<path fill="#816B94" d="M-88.8,352.6h5.2c0.8,0,1.6,0.1,2.2,0.4c0.7,0.3,1.2,0.6,1.7,1.1c0.5,0.4,0.8,1,1.1,1.5
			c0.2,0.6,0.4,1.2,0.4,1.7c0,1.1-0.2,2.1-0.6,2.9c-0.4,0.8-0.9,1.5-1.6,2c-0.7,0.5-1.4,0.9-2.3,1.2c-0.9,0.3-1.8,0.4-2.7,0.4h-2.3
			l-1.3,6.6h-3.1L-88.8,352.6z M-85.2,360.9c1.1,0,1.9-0.3,2.6-0.8c0.6-0.6,1-1.4,1-2.5c0-0.7-0.2-1.3-0.6-1.7
			c-0.4-0.4-1-0.6-1.9-0.6h-2.1l-1.1,5.6H-85.2z"/>
		<path fill="#816B94" d="M-74.9,357.8h2.9l-0.2,1.6c0.4-0.5,0.9-0.9,1.5-1.3s1.3-0.6,2.2-0.6c0.6,0,1.1,0.1,1.6,0.3l-1.1,2.9
			c-0.2-0.1-0.5-0.2-0.7-0.2c-0.2,0-0.4-0.1-0.7-0.1c-0.5,0-0.9,0.1-1.3,0.3c-0.4,0.2-0.8,0.5-1.1,0.8c-0.3,0.3-0.6,0.7-0.8,1.2
			c-0.2,0.5-0.4,0.9-0.5,1.5l-1.2,6.1h-3L-74.9,357.8z"/>
		<path fill="#816B94" d="M-58.7,369c-0.6,0.6-1.2,1-1.8,1.2c-0.6,0.2-1.3,0.4-2,0.4c-0.5,0-0.9-0.1-1.4-0.2
			c-0.5-0.1-0.8-0.4-1.2-0.7c-0.3-0.3-0.6-0.7-0.8-1.1c-0.2-0.4-0.3-0.9-0.3-1.5c0-0.7,0.1-1.4,0.4-2c0.3-0.6,0.7-1.1,1.3-1.6
			c0.6-0.5,1.2-0.8,2-1c0.8-0.2,1.6-0.4,2.6-0.4c0.5,0,1,0,1.4,0c0.4,0,0.8,0.1,1.1,0.1c0.1-0.2,0.1-0.4,0.1-0.6
			c0-0.6-0.2-1-0.7-1.3c-0.4-0.3-1-0.5-1.7-0.5c-0.9,0-1.5,0.1-2.1,0.3c-0.5,0.2-1,0.5-1.5,0.7l-1.2-2c0.5-0.4,1.2-0.8,2.1-1.1
			c0.9-0.4,2-0.5,3.2-0.5c1.4,0,2.4,0.4,3.3,1.1c0.8,0.7,1.3,1.8,1.3,3.1c0,0.3,0,0.7-0.1,1.2l-1.4,7.5H-59L-58.7,369z M-57.9,364.7
			c-0.2,0-0.5-0.1-0.8-0.1c-0.3,0-0.7-0.1-1.2-0.1c-0.6,0-1.2,0.1-1.6,0.2c-0.4,0.1-0.8,0.3-1.1,0.5c-0.3,0.2-0.5,0.5-0.6,0.7
			c-0.1,0.3-0.2,0.6-0.2,0.9c0,0.5,0.2,0.9,0.5,1.1c0.3,0.2,0.8,0.4,1.4,0.4c0.3,0,0.7-0.1,1-0.2c0.3-0.1,0.7-0.3,1-0.5
			s0.6-0.5,0.8-0.8c0.2-0.3,0.4-0.7,0.5-1.1L-57.9,364.7z"/>
		<path fill="#816B94" d="M-48.5,352.6h3l-1.9,9.6l5.2-4.4h3.6l-5.5,4.8l3.5,7.7h-3.3l-2.5-5.8l-1.6,1.3l-0.9,4.6h-3L-48.5,352.6z"
			/>
		<path fill="#816B94" d="M-34.5,360.3h-2.1l0.5-2.5h2.1l0.8-4.1h3l-0.8,4.1h3.3l-0.5,2.5h-3.2l-1.1,5.7c-0.1,0.3-0.1,0.5-0.1,0.8
			c0,0.9,0.4,1.3,1.2,1.3c0.4,0,0.7-0.1,1-0.2c0.3-0.1,0.6-0.3,0.8-0.5l1.3,1.9c-0.6,0.5-1.2,0.9-1.8,1.1c-0.6,0.2-1.3,0.4-1.9,0.4
			c-1.3,0-2.2-0.3-2.8-0.8c-0.6-0.5-0.9-1.4-0.9-2.5c0-0.2,0-0.4,0-0.6c0-0.2,0.1-0.5,0.1-0.7L-34.5,360.3z"/>
		<path fill="#816B94" d="M-23.2,357.8h3l-2.4,12.4h-3L-23.2,357.8z M-22.2,352.6h3.2l-0.6,3.3h-3.2L-22.2,352.6z"/>
		<path fill="#816B94" d="M-21.7,372.4c0.3,0.2,0.6,0.3,0.8,0.4c0.3,0.1,0.5,0.1,0.8,0.1c0.2,0,0.5,0,0.7-0.1
			c0.2-0.1,0.4-0.2,0.6-0.5c0.2-0.2,0.3-0.5,0.5-0.9c0.1-0.4,0.3-0.9,0.4-1.5l2.4-12.1h3l-2.4,12.3c-0.2,0.8-0.4,1.5-0.6,2.2
			c-0.2,0.7-0.5,1.2-0.9,1.7c-0.4,0.5-0.8,0.9-1.4,1.1c-0.5,0.3-1.2,0.4-2,0.4c-1.3,0-2.4-0.3-3.2-1L-21.7,372.4z M-14.7,352.6h3.2
			l-0.6,3.3h-3.2L-14.7,352.6z"/>
		<path fill="#816B94" d="M-7.2,352.6h3l-1.9,9.6l5.2-4.4h3.6l-5.5,4.8l3.5,7.7h-3.3l-2.5-5.8l-1.6,1.3l-0.9,4.6h-3L-7.2,352.6z"/>
		<path fill="#816B94" d="M10.3,357.8h3.4l1.4,9l4.8-9h3.5l-7.5,12.4h-3L10.3,357.8z"/>
		<path fill="#816B94" d="M31.5,357.4c0.8,0,1.6,0.1,2.3,0.4s1.2,0.6,1.7,1.1c0.5,0.5,0.8,1,1.1,1.7c0.3,0.7,0.4,1.4,0.4,2.3
			c0,1.1-0.2,2.1-0.5,3.1c-0.4,1-0.9,1.8-1.5,2.5c-0.6,0.7-1.4,1.3-2.3,1.7c-0.9,0.4-1.9,0.6-3,0.6c-0.8,0-1.6-0.1-2.2-0.4
			c-0.7-0.3-1.3-0.6-1.7-1.1c-0.5-0.5-0.8-1.1-1.1-1.7c-0.3-0.7-0.4-1.4-0.4-2.3c0-1.1,0.2-2.1,0.6-3c0.4-0.9,0.9-1.8,1.6-2.5
			s1.4-1.3,2.3-1.7C29.5,357.6,30.4,357.4,31.5,357.4z M31.1,360.1c-0.5,0-1,0.1-1.4,0.4c-0.5,0.2-0.9,0.6-1.3,1s-0.7,0.9-0.9,1.5
			c-0.2,0.6-0.3,1.2-0.3,1.8c0,0.9,0.2,1.7,0.7,2.4c0.5,0.6,1.2,1,2.1,1c0.5,0,1-0.1,1.4-0.3c0.5-0.2,0.9-0.6,1.3-1
			c0.4-0.4,0.7-0.9,0.9-1.5c0.2-0.6,0.3-1.2,0.3-1.9c0-1-0.2-1.8-0.7-2.4S32,360.1,31.1,360.1z"/>
		<path fill="#816B94" d="M47.2,357.4c0.8,0,1.6,0.1,2.3,0.4s1.2,0.6,1.7,1.1c0.5,0.5,0.8,1,1.1,1.7s0.4,1.4,0.4,2.3
			c0,1.1-0.2,2.1-0.5,3.1c-0.4,1-0.9,1.8-1.5,2.5c-0.6,0.7-1.4,1.3-2.3,1.7c-0.9,0.4-1.9,0.6-3,0.6c-0.8,0-1.6-0.1-2.2-0.4
			c-0.7-0.3-1.3-0.6-1.7-1.1c-0.5-0.5-0.8-1.1-1.1-1.7c-0.3-0.7-0.4-1.4-0.4-2.3c0-1.1,0.2-2.1,0.6-3c0.4-0.9,0.9-1.8,1.6-2.5
			c0.7-0.7,1.4-1.3,2.3-1.7C45.2,357.6,46.2,357.4,47.2,357.4z M46.8,360.1c-0.5,0-1,0.1-1.4,0.4c-0.5,0.2-0.9,0.6-1.3,1
			s-0.7,0.9-0.9,1.5c-0.2,0.6-0.3,1.2-0.3,1.8c0,0.9,0.2,1.7,0.7,2.4c0.5,0.6,1.2,1,2.1,1c0.5,0,1-0.1,1.4-0.3
			c0.5-0.2,0.9-0.6,1.3-1c0.4-0.4,0.7-0.9,0.9-1.5c0.2-0.6,0.3-1.2,0.3-1.9c0-1-0.2-1.8-0.7-2.4S47.7,360.1,46.8,360.1z"/>
		<path fill="#816B94" d="M57.4,357.8h2.9l-0.2,1.6c0.4-0.5,0.9-0.9,1.5-1.3c0.6-0.4,1.3-0.6,2.2-0.6c0.6,0,1.1,0.1,1.6,0.3
			l-1.1,2.9c-0.2-0.1-0.5-0.2-0.7-0.2c-0.2,0-0.4-0.1-0.7-0.1c-0.5,0-0.9,0.1-1.3,0.3c-0.4,0.2-0.8,0.5-1.1,0.8
			c-0.3,0.3-0.6,0.7-0.8,1.2c-0.2,0.5-0.4,0.9-0.5,1.5l-1.2,6.1h-3L57.4,357.8z"/>
		<path fill="#816B94" d="M83.1,352.1c1.1,0,2.1,0.2,3,0.5c0.9,0.3,1.8,0.9,2.5,1.5c0.7,0.7,1.2,1.5,1.6,2.4c0.4,0.9,0.6,2,0.6,3.1
			c0,1.5-0.2,2.9-0.7,4.2c-0.5,1.3-1.2,2.5-2.1,3.5c-0.9,1-2,1.9-3.2,2.5c-1.2,0.6-2.6,0.9-4.1,0.9c-1.1,0-2.2-0.2-3.1-0.6
			c-1-0.4-1.8-0.9-2.5-1.6c-0.7-0.7-1.2-1.5-1.6-2.4s-0.6-2-0.6-3.1c0-1.5,0.2-2.9,0.7-4.2c0.5-1.3,1.2-2.5,2.1-3.5
			c0.9-1,2-1.8,3.2-2.4C80.1,352.4,81.5,352.1,83.1,352.1z M76.3,362.7c0,0.7,0.1,1.3,0.3,2c0.2,0.6,0.5,1.1,0.9,1.6
			c0.4,0.5,0.9,0.8,1.5,1.1c0.6,0.3,1.2,0.4,2,0.4c1,0,1.8-0.2,2.6-0.7c0.8-0.4,1.5-1,2-1.7c0.6-0.7,1-1.5,1.3-2.4s0.5-1.8,0.5-2.7
			c0-0.7-0.1-1.4-0.3-2c-0.2-0.6-0.5-1.2-0.8-1.7c-0.4-0.5-0.8-0.8-1.4-1.1c-0.6-0.3-1.3-0.4-2-0.4c-1,0-1.9,0.2-2.7,0.7
			c-0.8,0.4-1.5,1-2.1,1.7s-1,1.5-1.3,2.4C76.4,360.8,76.3,361.7,76.3,362.7z"/>
		<path fill="#816B94" d="M98.4,368c0.5,0,0.9-0.1,1.3-0.3c0.4-0.2,0.7-0.5,1.1-0.8c0.3-0.3,0.6-0.7,0.8-1.2
			c0.2-0.5,0.4-0.9,0.5-1.5l1.2-6.4h3l-2.4,12.4H101l0.2-1.4c-0.4,0.3-0.7,0.6-1,0.8c-0.3,0.2-0.6,0.4-0.9,0.5s-0.7,0.2-1,0.3
			c-0.4,0.1-0.8,0.1-1.2,0.1c-0.5,0-0.9-0.1-1.3-0.2c-0.4-0.1-0.8-0.4-1.1-0.7c-0.3-0.3-0.6-0.7-0.7-1.2c-0.2-0.5-0.3-1-0.3-1.6
			c0-0.2,0-0.4,0-0.7c0-0.2,0.1-0.5,0.1-0.8l1.5-7.6h3l-1.4,7.2c-0.1,0.4-0.1,0.7-0.1,1c0,0.6,0.1,1,0.4,1.4
			C97.3,367.8,97.7,368,98.4,368z"/>
		<path fill="#816B94" d="M116.7,369c-0.4,0.4-1,0.8-1.6,1.1c-0.6,0.3-1.3,0.5-2.1,0.5c-0.6,0-1.1-0.1-1.7-0.3c-0.6-0.2-1-0.5-1.4-1
			c-0.4-0.4-0.7-0.9-1-1.5c-0.2-0.6-0.4-1.3-0.4-2.1c0-1.4,0.2-2.7,0.7-3.7c0.5-1,1.1-1.9,1.8-2.6c0.7-0.7,1.5-1.2,2.4-1.5
			c0.9-0.3,1.7-0.5,2.5-0.5c0.7,0,1.2,0.1,1.6,0.2c0.4,0.1,0.8,0.3,1.2,0.5l1.1-5.7h3l-3.4,17.7h-2.9L116.7,369z M118.3,360.8
			c-0.3-0.2-0.6-0.3-1-0.4s-0.8-0.1-1.3-0.1c-0.6,0-1.1,0.1-1.6,0.3c-0.5,0.2-1,0.6-1.4,1s-0.7,1-0.9,1.6c-0.2,0.6-0.3,1.3-0.3,2.1
			s0.2,1.5,0.6,2c0.4,0.5,1,0.8,1.8,0.8c0.5,0,0.9-0.1,1.3-0.3c0.4-0.2,0.7-0.5,1-0.8c0.3-0.3,0.5-0.7,0.7-1.1
			c0.2-0.4,0.3-0.8,0.4-1.1L118.3,360.8z"/>
		<path fill="#816B94" d="M131.3,357.5c0.9,0,1.6,0.1,2.3,0.4c0.6,0.3,1.2,0.7,1.6,1.1c0.4,0.4,0.7,1,0.9,1.7c0.2,0.7,0.3,1.3,0.3,2
			c0,0.4,0,0.8-0.1,1.1c-0.1,0.4-0.1,0.8-0.2,1.2h-8.7v0.2c0,0.9,0.3,1.6,0.8,2.1c0.5,0.5,1.3,0.8,2.2,0.8c0.7,0,1.3-0.1,1.9-0.4
			c0.6-0.2,1.1-0.6,1.6-1l1.5,2.1c-0.7,0.6-1.5,1-2.3,1.4c-0.9,0.3-1.9,0.5-3.1,0.5c-0.8,0-1.6-0.1-2.3-0.4
			c-0.7-0.2-1.3-0.6-1.8-1.1c-0.5-0.5-0.9-1-1.2-1.7c-0.3-0.7-0.4-1.5-0.4-2.3c0-1.1,0.2-2.2,0.5-3.1c0.3-1,0.8-1.8,1.5-2.5
			c0.6-0.7,1.4-1.2,2.2-1.6C129.3,357.7,130.3,357.5,131.3,357.5z M133.4,362.8c0-0.1,0-0.2,0-0.2c0-0.1,0-0.1,0-0.2
			c0-0.9-0.2-1.5-0.7-1.9c-0.5-0.4-1-0.6-1.7-0.6c-0.8,0-1.5,0.2-2.1,0.7c-0.6,0.5-1,1.2-1.3,2.1L133.4,362.8L133.4,362.8z"/>
		<path fill="#816B94" d="M141.2,357.8h2.9l-0.2,1.6c0.4-0.5,0.9-0.9,1.5-1.3s1.3-0.6,2.2-0.6c0.6,0,1.1,0.1,1.6,0.3l-1.1,2.9
			c-0.2-0.1-0.5-0.2-0.7-0.2c-0.2,0-0.4-0.1-0.7-0.1c-0.5,0-0.9,0.1-1.3,0.3c-0.4,0.2-0.8,0.5-1.1,0.8c-0.3,0.3-0.6,0.7-0.8,1.2
			c-0.2,0.5-0.4,0.9-0.5,1.5l-1.2,6.1h-3L141.2,357.8z"/>
		<path fill="#816B94" d="M151.1,361.4h7.8l-0.6,2.9h-7.8L151.1,361.4z"/>
		<path fill="#816B94" d="M-85,383.4c0.9,0,1.6,0.1,2.3,0.4c0.6,0.3,1.2,0.7,1.6,1.1c0.4,0.4,0.7,1,0.9,1.7s0.3,1.3,0.3,2
			c0,0.4,0,0.8-0.1,1.1c-0.1,0.4-0.1,0.8-0.2,1.2h-8.7v0.2c0,0.9,0.3,1.6,0.8,2.1c0.5,0.5,1.3,0.8,2.2,0.8c0.7,0,1.3-0.1,1.9-0.4
			c0.6-0.2,1.1-0.6,1.6-1l1.5,2.1c-0.7,0.6-1.5,1-2.3,1.4c-0.9,0.3-1.9,0.5-3.1,0.5c-0.8,0-1.6-0.1-2.3-0.4
			c-0.7-0.2-1.3-0.6-1.8-1.1c-0.5-0.5-0.9-1-1.2-1.7s-0.4-1.5-0.4-2.3c0-1.1,0.2-2.2,0.5-3.1c0.3-1,0.8-1.8,1.5-2.5
			c0.6-0.7,1.4-1.2,2.2-1.6C-87,383.6-86,383.4-85,383.4z M-82.9,388.6c0-0.1,0-0.2,0-0.2c0-0.1,0-0.1,0-0.2c0-0.9-0.2-1.5-0.7-1.9
			c-0.5-0.4-1-0.6-1.7-0.6c-0.8,0-1.5,0.2-2.1,0.7c-0.6,0.5-1,1.2-1.3,2.1L-82.9,388.6L-82.9,388.6z"/>
		<path fill="#816B94" d="M-75.1,383.7h2.9l-0.2,1.4c0.4-0.3,0.7-0.6,1-0.8c0.3-0.2,0.6-0.4,1-0.5c0.3-0.1,0.7-0.2,1-0.3
			c0.4-0.1,0.8-0.1,1.2-0.1s0.9,0.1,1.3,0.3c0.4,0.2,0.8,0.4,1.1,0.7c0.3,0.3,0.6,0.7,0.8,1.2c0.2,0.5,0.3,1,0.3,1.6
			c0,0.2,0,0.4,0,0.7c0,0.2-0.1,0.5-0.1,0.8l-1.5,7.6h-3l1.4-7.2c0-0.2,0.1-0.4,0.1-0.5c0-0.2,0-0.3,0-0.5c0-0.5-0.1-0.9-0.3-1.2
			c-0.3-0.5-0.8-0.7-1.5-0.7c-0.5,0-0.9,0.1-1.3,0.3c-0.4,0.2-0.8,0.5-1.1,0.8s-0.6,0.7-0.8,1.2c-0.2,0.5-0.4,0.9-0.5,1.5l-1.2,6.4
			h-3L-75.1,383.7z"/>
		<path fill="#816B94" d="M-52.9,378h2.9l-10.3,18.6h-3L-52.9,378z"/>
		<path fill="#816B94" d="M-43.8,383.3c0.8,0,1.6,0.1,2.3,0.4s1.2,0.6,1.7,1.1s0.8,1,1.1,1.7s0.4,1.4,0.4,2.3c0,1.1-0.2,2.1-0.5,3.1
			c-0.4,1-0.9,1.8-1.5,2.5c-0.6,0.7-1.4,1.3-2.3,1.7c-0.9,0.4-1.9,0.6-3,0.6c-0.8,0-1.6-0.1-2.2-0.4c-0.7-0.3-1.3-0.6-1.7-1.1
			c-0.5-0.5-0.8-1.1-1.1-1.7c-0.3-0.7-0.4-1.4-0.4-2.3c0-1.1,0.2-2.1,0.6-3c0.4-0.9,0.9-1.8,1.6-2.5c0.7-0.7,1.4-1.3,2.3-1.7
			C-45.8,383.5-44.8,383.3-43.8,383.3z M-44.2,386c-0.5,0-1,0.1-1.4,0.4c-0.5,0.2-0.9,0.6-1.3,1c-0.4,0.4-0.7,0.9-0.9,1.5
			c-0.2,0.6-0.3,1.2-0.3,1.8c0,0.9,0.2,1.7,0.7,2.4c0.5,0.6,1.2,1,2.1,1c0.5,0,1-0.1,1.4-0.3c0.5-0.2,0.9-0.6,1.3-1
			c0.4-0.4,0.7-0.9,0.9-1.5c0.2-0.6,0.3-1.2,0.3-1.9c0-1-0.2-1.8-0.7-2.4S-43.2,386-44.2,386z"/>
		<path fill="#816B94" d="M-33.4,386.2h-2.1l0.5-2.5h2.1l0.1-0.8c0.6-3.3,2.3-5,5.2-5c0.6,0,1.2,0.1,1.8,0.3s1.1,0.6,1.6,1.1l-1.7,2
			c-0.2-0.2-0.5-0.4-0.8-0.5s-0.6-0.2-1-0.2c-0.6,0-1.1,0.2-1.4,0.6c-0.3,0.4-0.6,1-0.8,1.9l-0.1,0.6h3.1l-0.5,2.5h-3.1l-1.9,9.9h-3
			L-33.4,386.2z"/>
		<path fill="#816B94" d="M-16.7,378.5h3.2l-1.4,7.4l7.7-7.4h3.9l-7.4,7.3l4.6,10.4h-3.6l-3.6-8.3l-2.4,2.2l-1.2,6.1H-20
			L-16.7,378.5z"/>
		<path fill="#816B94" d="M-0.6,383.7h3l-2.4,12.4h-3L-0.6,383.7z M0.2,378.5h3.2l-0.6,3.3h-3.2L0.2,378.5z"/>
		<path fill="#816B94" d="M6.7,383.7h2.9l-0.2,1.4c0.4-0.3,0.7-0.6,1-0.8c0.3-0.2,0.6-0.4,1-0.5c0.3-0.1,0.7-0.2,1-0.3
			c0.4-0.1,0.8-0.1,1.2-0.1c0.4,0,0.9,0.1,1.3,0.3c0.4,0.2,0.8,0.4,1.1,0.7c0.3,0.3,0.6,0.7,0.8,1.2c0.2,0.5,0.3,1,0.3,1.6
			c0,0.2,0,0.4,0,0.7c0,0.2-0.1,0.5-0.1,0.8l-1.5,7.6h-3l1.4-7.2c0-0.2,0.1-0.4,0.1-0.5c0-0.2,0-0.3,0-0.5c0-0.5-0.1-0.9-0.3-1.2
			c-0.3-0.5-0.8-0.7-1.5-0.7c-0.5,0-0.9,0.1-1.3,0.3c-0.4,0.2-0.8,0.5-1.1,0.8c-0.3,0.3-0.6,0.7-0.8,1.2c-0.2,0.5-0.4,0.9-0.5,1.5
			l-1.2,6.4h-3L6.7,383.7z"/>
		<path fill="#816B94" d="M28.2,394.9c-0.4,0.4-1,0.8-1.6,1.1s-1.3,0.5-2.1,0.5c-0.6,0-1.1-0.1-1.7-0.3c-0.6-0.2-1-0.5-1.4-1
			c-0.4-0.4-0.7-0.9-1-1.5c-0.2-0.6-0.4-1.3-0.4-2.1c0-1.4,0.2-2.7,0.7-3.7s1.1-1.9,1.8-2.6c0.7-0.7,1.5-1.2,2.4-1.5
			s1.7-0.5,2.5-0.5c0.7,0,1.2,0.1,1.6,0.2s0.8,0.3,1.2,0.5l1.1-5.7h3l-3.4,17.7H28L28.2,394.9z M29.8,386.7c-0.3-0.2-0.6-0.3-1-0.4
			c-0.4-0.1-0.8-0.1-1.3-0.1c-0.6,0-1.1,0.1-1.6,0.3c-0.5,0.2-1,0.6-1.4,1c-0.4,0.4-0.7,1-0.9,1.6c-0.2,0.6-0.3,1.3-0.3,2.1
			s0.2,1.5,0.6,2c0.4,0.5,1,0.8,1.8,0.8c0.5,0,0.9-0.1,1.3-0.3c0.4-0.2,0.7-0.5,1-0.8c0.3-0.3,0.5-0.7,0.7-1.1
			c0.2-0.4,0.3-0.8,0.4-1.1L29.8,386.7z"/>
		<path fill="#816B94" d="M44.3,378.5h3l-1.2,6.2c0.3-0.2,0.6-0.4,0.9-0.5c0.3-0.1,0.5-0.3,0.8-0.4c0.3-0.1,0.6-0.2,0.9-0.2
			c0.3,0,0.6-0.1,1-0.1c0.6,0,1.2,0.1,1.7,0.4s1,0.6,1.3,1.1c0.4,0.4,0.7,1,0.9,1.6c0.2,0.6,0.3,1.3,0.3,2c0,1.3-0.2,2.4-0.6,3.4
			s-1,1.9-1.7,2.6s-1.5,1.3-2.5,1.6c-1,0.4-2,0.6-3.1,0.6c-1,0-2-0.1-2.8-0.3c-0.9-0.2-1.6-0.5-2.3-0.8L44.3,378.5z M44.3,393.6
			c0.4,0.1,0.7,0.2,1,0.3c0.3,0,0.6,0.1,1,0.1c0.7,0,1.3-0.1,1.9-0.4c0.6-0.3,1-0.6,1.4-1.1c0.4-0.5,0.7-1,0.9-1.6
			c0.2-0.6,0.3-1.3,0.3-2c0-0.8-0.2-1.5-0.5-2c-0.4-0.5-0.9-0.8-1.7-0.8c-0.5,0-0.9,0.1-1.3,0.3c-0.4,0.2-0.7,0.4-1,0.7
			s-0.5,0.6-0.7,1c-0.2,0.4-0.3,0.8-0.4,1.2L44.3,393.6z"/>
		<path fill="#816B94" d="M63.8,383.4c0.9,0,1.6,0.1,2.3,0.4c0.6,0.3,1.2,0.7,1.6,1.1c0.4,0.4,0.7,1,0.9,1.7c0.2,0.7,0.3,1.3,0.3,2
			c0,0.4,0,0.8-0.1,1.1c-0.1,0.4-0.1,0.8-0.2,1.2h-8.7v0.2c0,0.9,0.3,1.6,0.8,2.1c0.5,0.5,1.3,0.8,2.2,0.8c0.7,0,1.3-0.1,1.9-0.4
			c0.6-0.2,1.1-0.6,1.6-1l1.5,2.1c-0.7,0.6-1.5,1-2.3,1.4c-0.9,0.3-1.9,0.5-3.1,0.5c-0.8,0-1.6-0.1-2.3-0.4
			c-0.7-0.2-1.3-0.6-1.8-1.1c-0.5-0.5-0.9-1-1.2-1.7c-0.3-0.7-0.4-1.5-0.4-2.3c0-1.1,0.2-2.2,0.5-3.1c0.3-1,0.8-1.8,1.5-2.5
			c0.6-0.7,1.4-1.2,2.2-1.6C61.9,383.6,62.8,383.4,63.8,383.4z M66,388.6c0-0.1,0-0.2,0-0.2c0-0.1,0-0.1,0-0.2
			c0-0.9-0.2-1.5-0.7-1.9c-0.5-0.4-1-0.6-1.7-0.6c-0.8,0-1.5,0.2-2.1,0.7c-0.6,0.5-1,1.2-1.3,2.1L66,388.6L66,388.6z"/>
		<path fill="#816B94" d="M82.5,395.9c-0.4,2-1.2,3.5-2.3,4.5c-1.1,1-2.6,1.4-4.6,1.4c-0.8,0-1.6-0.1-2.4-0.3
			c-0.8-0.2-1.6-0.5-2.3-1.1l1.3-2.3c0.6,0.4,1.1,0.6,1.7,0.8c0.6,0.2,1.2,0.3,1.8,0.3c1.1,0,1.9-0.3,2.5-0.9s1-1.4,1.2-2.5l0.2-0.9
			c-0.3,0.3-0.7,0.5-1.3,0.8c-0.6,0.3-1.3,0.4-2.2,0.4c-0.7,0-1.3-0.1-1.9-0.4c-0.5-0.2-1-0.6-1.4-1c-0.4-0.4-0.7-0.9-0.8-1.5
			c-0.2-0.6-0.3-1.2-0.3-1.8c0-1.1,0.2-2.2,0.6-3.2c0.4-1,0.9-1.8,1.6-2.6c0.7-0.7,1.5-1.3,2.5-1.7s2-0.6,3.2-0.6
			c1,0,1.9,0.1,2.8,0.3c0.9,0.2,1.7,0.5,2.3,0.8L82.5,395.9z M81.3,386.5c-0.6-0.2-1.3-0.3-2.1-0.3c-0.7,0-1.3,0.1-1.9,0.4
			c-0.6,0.2-1,0.6-1.4,1c-0.4,0.4-0.7,1-0.9,1.6c-0.2,0.6-0.3,1.3-0.3,2.1s0.2,1.3,0.5,1.8c0.4,0.4,1,0.6,1.8,0.6
			c0.5,0,0.9-0.1,1.3-0.2c0.4-0.1,0.7-0.4,1-0.6c0.3-0.2,0.5-0.6,0.7-0.9c0.2-0.4,0.3-0.7,0.4-1.1L81.3,386.5z"/>
		<path fill="#816B94" d="M94.3,383.4c0.9,0,1.6,0.1,2.3,0.4c0.6,0.3,1.2,0.7,1.6,1.1s0.7,1,0.9,1.7c0.2,0.7,0.3,1.3,0.3,2
			c0,0.4,0,0.8-0.1,1.1c-0.1,0.4-0.1,0.8-0.2,1.2h-8.7v0.2c0,0.9,0.3,1.6,0.8,2.1c0.5,0.5,1.3,0.8,2.2,0.8c0.7,0,1.3-0.1,1.9-0.4
			c0.6-0.2,1.1-0.6,1.6-1l1.5,2.1c-0.7,0.6-1.5,1-2.3,1.4c-0.9,0.3-1.9,0.5-3.1,0.5c-0.8,0-1.6-0.1-2.3-0.4
			c-0.7-0.2-1.3-0.6-1.8-1.1c-0.5-0.5-0.9-1-1.2-1.7c-0.3-0.7-0.4-1.5-0.4-2.3c0-1.1,0.2-2.2,0.5-3.1c0.3-1,0.8-1.8,1.5-2.5
			c0.6-0.7,1.4-1.2,2.2-1.6C92.4,383.6,93.3,383.4,94.3,383.4z M96.3,388.6c0-0.1,0-0.2,0-0.2c0-0.1,0-0.1,0-0.2
			c0-0.9-0.2-1.5-0.7-1.9c-0.5-0.4-1-0.6-1.7-0.6c-0.8,0-1.5,0.2-2.1,0.7c-0.6,0.5-1,1.2-1.3,2.1L96.3,388.6L96.3,388.6z"/>
		<path fill="#816B94" d="M105.2,378.5h3l-3.4,17.7h-3L105.2,378.5z"/>
		<path fill="#816B94" d="M116.5,383.4c0.9,0,1.6,0.1,2.3,0.4c0.6,0.3,1.2,0.7,1.6,1.1s0.7,1,0.9,1.7s0.3,1.3,0.3,2
			c0,0.4,0,0.8-0.1,1.1c-0.1,0.4-0.1,0.8-0.2,1.2h-8.7v0.2c0,0.9,0.3,1.6,0.8,2.1c0.5,0.5,1.3,0.8,2.2,0.8c0.7,0,1.3-0.1,1.9-0.4
			c0.6-0.2,1.1-0.6,1.6-1l1.5,2.1c-0.7,0.6-1.5,1-2.3,1.4c-0.9,0.3-1.9,0.5-3.1,0.5c-0.8,0-1.6-0.1-2.3-0.4
			c-0.7-0.2-1.3-0.6-1.8-1.1c-0.5-0.5-0.9-1-1.2-1.7c-0.3-0.7-0.4-1.5-0.4-2.3c0-1.1,0.2-2.2,0.5-3.1c0.3-1,0.8-1.8,1.5-2.5
			c0.6-0.7,1.4-1.2,2.2-1.6C114.5,383.6,115.4,383.4,116.5,383.4z M118.6,388.6c0-0.1,0-0.2,0-0.2c0-0.1,0-0.1,0-0.2
			c0-0.9-0.2-1.5-0.7-1.9c-0.5-0.4-1-0.6-1.7-0.6c-0.8,0-1.5,0.2-2.1,0.7c-0.6,0.5-1,1.2-1.3,2.1L118.6,388.6L118.6,388.6z"/>
		<path fill="#816B94" d="M126.5,383.7h3l-2.5,12.5h-3L126.5,383.7z M127.4,378.5h3.2l-0.6,3.3h-3.2L127.4,378.5z"/>
		<path fill="#816B94" d="M140,394.9c-0.4,0.4-1,0.8-1.6,1.1s-1.3,0.5-2.1,0.5c-0.6,0-1.1-0.1-1.7-0.3c-0.6-0.2-1-0.5-1.4-1
			c-0.4-0.4-0.7-0.9-1-1.5c-0.2-0.6-0.4-1.3-0.4-2.1c0-1.4,0.2-2.7,0.7-3.7c0.5-1,1.1-1.9,1.8-2.6c0.7-0.7,1.5-1.2,2.4-1.5
			c0.9-0.3,1.7-0.5,2.5-0.5c0.7,0,1.2,0.1,1.6,0.2c0.4,0.1,0.8,0.3,1.2,0.5l1.1-5.7h3l-3.4,17.7h-2.9L140,394.9z M141.6,386.7
			c-0.3-0.2-0.6-0.3-1-0.4c-0.4-0.1-0.8-0.1-1.3-0.1c-0.6,0-1.1,0.1-1.6,0.3c-0.5,0.2-1,0.6-1.4,1c-0.4,0.4-0.7,1-0.9,1.6
			c-0.2,0.6-0.3,1.3-0.3,2.1s0.2,1.5,0.6,2c0.4,0.5,1,0.8,1.8,0.8c0.5,0,0.9-0.1,1.3-0.3c0.4-0.2,0.7-0.5,1-0.8
			c0.3-0.3,0.5-0.7,0.7-1.1c0.2-0.4,0.3-0.8,0.4-1.1L141.6,386.7z"/>
		<path fill="#816B94" d="M149.5,383.7h3l-2.4,12.4h-3L149.5,383.7z M150.4,378.5h3.2l-0.6,3.3h-3.2L150.4,378.5z"/>
		<path fill="#816B94" d="M156.8,383.7h2.9l-0.2,1.4c0.4-0.3,0.7-0.6,1-0.8c0.3-0.2,0.6-0.4,1-0.5c0.3-0.1,0.7-0.2,1-0.3
			c0.4-0.1,0.8-0.1,1.2-0.1c0.4,0,0.9,0.1,1.3,0.3c0.4,0.2,0.8,0.4,1.1,0.7c0.3,0.3,0.6,0.7,0.8,1.2c0.2,0.5,0.3,1,0.3,1.6
			c0,0.2,0,0.4,0,0.7c0,0.2-0.1,0.5-0.1,0.8l-1.5,7.6h-3l1.4-7.2c0-0.2,0.1-0.4,0.1-0.5c0-0.2,0-0.3,0-0.5c0-0.5-0.1-0.9-0.3-1.2
			c-0.3-0.5-0.8-0.7-1.5-0.7c-0.5,0-0.9,0.1-1.3,0.3c-0.4,0.2-0.8,0.5-1.1,0.8c-0.3,0.3-0.6,0.7-0.8,1.2c-0.2,0.5-0.4,0.9-0.5,1.5
			l-1.2,6.4h-3L156.8,383.7z"/>
		<path fill="#816B94" d="M180.9,395.9c-0.4,2-1.2,3.5-2.3,4.5c-1.1,1-2.6,1.4-4.6,1.4c-0.8,0-1.6-0.1-2.4-0.3
			c-0.8-0.2-1.6-0.5-2.3-1.1l1.3-2.3c0.6,0.4,1.1,0.6,1.7,0.8c0.6,0.2,1.2,0.3,1.8,0.3c1.1,0,1.9-0.3,2.5-0.9s1-1.4,1.2-2.5l0.2-0.9
			c-0.3,0.3-0.7,0.5-1.3,0.8c-0.6,0.3-1.3,0.4-2.2,0.4c-0.7,0-1.3-0.1-1.9-0.4c-0.5-0.2-1-0.6-1.4-1c-0.4-0.4-0.7-0.9-0.8-1.5
			c-0.2-0.6-0.3-1.2-0.3-1.8c0-1.1,0.2-2.2,0.6-3.2c0.4-1,0.9-1.8,1.6-2.6c0.7-0.7,1.5-1.3,2.5-1.7c1-0.4,2-0.6,3.2-0.6
			c1,0,1.9,0.1,2.8,0.3c0.9,0.2,1.7,0.5,2.3,0.8L180.9,395.9z M179.8,386.5c-0.6-0.2-1.3-0.3-2.1-0.3c-0.7,0-1.3,0.1-1.9,0.4
			c-0.6,0.2-1,0.6-1.4,1c-0.4,0.4-0.7,1-0.9,1.6c-0.2,0.6-0.3,1.3-0.3,2.1s0.2,1.3,0.5,1.8c0.4,0.4,1,0.6,1.8,0.6
			c0.5,0,0.9-0.1,1.3-0.2c0.4-0.1,0.7-0.4,1-0.6c0.3-0.2,0.5-0.6,0.7-0.9c0.2-0.4,0.3-0.7,0.4-1.1L179.8,386.5z"/>
	</g>
</g>
</svg>
